<?xml version="1.0" standalone="no"?>
<!DOCTYPE svg PUBLIC "-//W3C//DTD SVG 20010904//EN"
 "http://www.w3.org/TR/2001/REC-SVG-20010904/DTD/svg10.dtd">
<svg version="1.0" xmlns="http://www.w3.org/2000/svg"
 width="1200.000000pt" height="1200.000000pt" viewBox="0 0 1200.000000 1200.000000"
 preserveAspectRatio="xMidYMid meet">
<metadata>
Created by potrace 1.14, written by Peter Selinger 2001-2017
</metadata>
<g transform="translate(0.000000,1200.000000) scale(0.100000,-0.100000)"
fill="#000000" stroke="none">
<path d="M5625 11048 c-6 -17 -435 -1919 -435 -1930 0 -4 122 -8 270 -8 149 0
270 4 270 9 0 9 47 264 55 299 5 22 6 22 218 22 l213 0 29 -152 c15 -84 30
-159 32 -165 4 -10 67 -13 269 -13 205 0 264 3 264 13 -1 6 -99 444 -218 972
l-217 960 -373 3 c-293 2 -374 0 -377 -10z m450 -819 c36 -185 65 -342 65
-348 0 -13 -280 -16 -280 -3 0 4 30 168 67 366 43 228 70 351 75 340 4 -11 37
-170 73 -355z"/>
<path d="M2466 10463 c-3 -10 -71 -310 -151 -668 -80 -357 -148 -658 -151
-668 -5 -16 16 -17 378 -15 l383 3 45 205 45 205 -142 3 c-79 1 -143 7 -143
11 0 5 47 215 105 466 58 252 105 461 105 466 0 5 -104 9 -234 9 -215 0 -235
-1 -240 -17z"/>
<path d="M3320 10476 c0 -4 -268 -1232 -288 -1323 l-10 -43 208 0 208 0 16 78
c28 130 21 123 128 120 l93 -3 3 -97 3 -98 209 0 210 0 0 685 0 685 -390 0
c-214 0 -390 -2 -390 -4z m360 -581 l0 -235 -65 0 c-40 0 -65 4 -65 11 0 9 99
388 116 442 3 9 7 17 10 17 2 0 4 -106 4 -235z"/>
<path d="M4260 9795 l0 -685 385 0 c212 0 385 1 385 3 0 1 68 306 150 677 83
371 150 678 150 682 0 4 -96 8 -214 8 -196 0 -215 -2 -220 -17 -3 -10 -51
-223 -106 -473 -56 -250 -103 -457 -106 -459 -2 -2 -4 210 -4 472 l0 477 -210
0 -210 0 0 -685z"/>
<path d="M6650 10473 c0 -5 16 -104 37 -220 l37 -213 143 0 143 0 0 -25 c0
-13 -18 -216 -40 -450 -22 -234 -40 -432 -40 -440 0 -13 56 -15 415 -15 242 0
415 4 415 9 0 8 -61 306 -75 369 -5 21 -9 22 -130 22 l-125 0 0 33 c0 17 20
221 45 452 25 231 45 435 45 453 l0 32 -435 0 c-239 0 -435 -3 -435 -7z"/>
<path d="M7605 10448 c3 -18 21 -116 39 -218 l32 -185 147 -3 147 -3 -5 -37
c-3 -20 -21 -208 -40 -417 -19 -209 -37 -401 -41 -427 l-6 -48 419 0 419 0
-41 200 -40 200 -127 0 c-101 0 -128 3 -128 14 0 17 88 857 95 914 l6 42 -441
0 -441 0 6 -32z"/>
<path d="M8770 9795 l0 -685 205 0 205 0 0 100 0 100 99 0 c86 0 100 -2 105
-17 3 -10 13 -55 22 -100 l17 -83 210 0 c163 0 208 3 205 13 -3 6 -72 315
-154 684 l-149 673 -382 0 -383 0 0 -685z m479 91 l59 -226 -64 0 -64 0 1 238
c0 130 3 232 5 225 3 -6 31 -113 63 -237z"/>
<path d="M2990 8840 l0 -60 965 0 965 0 0 60 0 60 -965 0 -965 0 0 -60z"/>
<path d="M6860 8840 l0 -60 970 0 970 0 0 60 0 60 -970 0 -970 0 0 -60z"/>
<path d="M3426 8420 c-37 -12 -85 -56 -102 -97 -20 -47 -17 -117 6 -164 49
-94 185 -118 267 -46 149 131 19 363 -171 307z m94 -75 c38 -20 50 -43 50 -98
0 -77 -58 -123 -122 -96 -75 31 -77 163 -3 195 38 17 40 17 75 -1z"/>
<path d="M4380 8257 l0 -177 35 0 35 0 0 85 c0 47 3 85 8 85 4 0 45 -35 92
-78 47 -42 94 -83 103 -91 16 -13 17 -2 17 163 l0 176 -40 0 -40 0 0 -92 0
-92 -57 54 c-32 31 -79 75 -105 100 l-48 44 0 -177z"/>
<path d="M4907 8416 c-65 -24 -98 -64 -111 -138 -17 -93 49 -190 138 -203 132
-20 230 83 206 216 -10 55 -37 89 -90 117 -50 25 -88 27 -143 8z m121 -90 c50
-49 35 -150 -27 -176 -62 -25 -124 24 -124 99 0 96 87 140 151 77z"/>
<path d="M8285 8416 c-66 -30 -93 -103 -61 -164 20 -39 43 -52 93 -52 l38 0
-25 -20 c-14 -10 -42 -27 -62 -36 -37 -16 -37 -17 -22 -45 8 -16 18 -29 22
-29 4 0 34 15 67 34 95 52 142 138 124 225 -16 75 -104 119 -174 87z m85 -76
c11 -11 20 -26 20 -33 0 -22 -30 -57 -50 -57 -24 0 -50 26 -50 51 0 20 33 59
50 59 6 0 19 -9 30 -20z"/>
<path d="M2937 8413 c-4 -3 -7 -19 -7 -34 0 -27 2 -28 53 -31 l52 -3 3 -132 3
-133 34 0 34 0 3 133 3 132 53 3 52 3 0 35 0 34 -138 0 c-76 0 -142 -3 -145
-7z"/>
<path d="M3780 8250 l0 -170 35 0 35 0 0 55 c0 52 1 55 25 55 21 0 30 -10 52
-55 l27 -55 48 0 47 0 -39 62 -39 63 24 25 c33 34 40 78 21 124 -20 48 -63 66
-161 66 l-75 0 0 -170z m160 86 c19 -24 8 -59 -23 -74 -43 -21 -57 -10 -57 43
0 44 0 45 34 45 18 0 39 -7 46 -14z"/>
<path d="M4160 8251 l0 -171 40 0 40 0 -2 168 -3 167 -37 3 -38 3 0 -170z"/>
<path d="M5507 8413 c-4 -3 -7 -80 -7 -170 l0 -163 40 0 40 0 0 170 0 170 -33
0 c-19 0 -37 -3 -40 -7z"/>
<path d="M5690 8386 c0 -35 0 -35 51 -38 l51 -3 -1 -132 -2 -133 41 0 40 0 0
135 0 135 55 0 55 0 0 35 0 35 -145 0 -145 0 0 -34z"/>
<path d="M6152 8379 c-11 -24 -45 -99 -76 -166 -31 -67 -56 -125 -56 -128 0
-3 18 -5 39 -5 34 0 40 4 50 30 10 29 12 30 69 30 57 0 60 -1 72 -30 11 -26
18 -30 51 -30 l38 0 -75 162 c-41 90 -79 167 -84 172 -6 6 -17 -8 -28 -35z
m58 -171 c0 -5 -15 -8 -34 -8 l-34 0 16 41 16 41 17 -34 c10 -18 18 -36 19
-40z"/>
<path d="M6440 8250 l0 -170 108 0 107 0 -1 32 -1 33 -71 3 -72 3 0 134 0 135
-35 0 -35 0 0 -170z"/>
<path d="M6760 8250 l0 -170 40 0 40 0 0 170 0 170 -40 0 -40 0 0 -170z"/>
<path d="M7030 8258 c-40 -90 -75 -166 -77 -170 -2 -5 14 -8 37 -8 37 0 42 3
51 30 11 29 13 30 71 30 57 0 60 -1 71 -30 10 -26 16 -30 50 -30 21 0 37 4 35
9 -18 49 -153 331 -158 331 -3 0 -39 -73 -80 -162z m95 -21 l15 -37 -34 0 -34
0 15 40 c9 22 18 39 19 37 2 -2 10 -20 19 -40z"/>
<path d="M7635 8398 c-27 -11 -51 -21 -53 -23 -2 -1 0 -15 4 -30 6 -24 10 -26
40 -20 l34 6 0 -126 0 -125 35 0 35 0 0 170 c0 195 5 188 -95 148z"/>
<path d="M7901 8394 c-25 -20 -31 -34 -31 -64 0 -22 8 -47 19 -61 18 -23 18
-23 -5 -42 -35 -27 -33 -89 2 -122 67 -62 202 -34 219 44 7 32 -15 86 -37 94
-10 3 -9 9 3 23 26 29 32 63 18 95 -25 62 -132 81 -188 33z m100 -44 c11 -6
19 -21 19 -35 0 -20 -24 -45 -44 -45 -10 0 -36 32 -36 45 0 13 26 45 36 45 3
0 14 -5 25 -10z m17 -146 c22 -40 -17 -76 -58 -54 -22 12 -26 40 -8 58 17 17
55 15 66 -4z"/>
<path d="M8590 8325 l0 -94 54 1 c61 2 86 -12 86 -47 0 -31 -45 -49 -103 -40
-43 7 -44 6 -50 -22 -8 -40 5 -48 81 -48 79 0 114 18 139 70 34 71 -10 141
-95 152 -36 5 -42 9 -42 29 0 23 3 24 70 24 l70 0 0 35 0 35 -105 0 -105 0 0
-95z"/>
<path d="M5247 8133 c-13 -13 -7 -42 13 -56 18 -12 18 -15 4 -35 -22 -31 0
-27 25 4 23 30 27 64 9 82 -13 13 -41 16 -51 5z"/>
<path d="M7376 8125 c-8 -23 -9 -22 16 -44 20 -19 20 -22 5 -39 -29 -32 -18
-37 13 -7 25 24 30 37 28 65 -3 29 -7 35 -29 38 -17 2 -29 -3 -33 -13z"/>
<path d="M4227 7473 c-11 -10 -8 -71 3 -78 6 -4 10 5 10 20 0 15 5 35 10 46 8
14 7 19 -3 19 -8 0 -17 -3 -20 -7z"/>
<path d="M6125 7460 c3 -5 8 -10 11 -10 2 0 4 5 4 10 0 6 -5 10 -11 10 -5 0
-7 -4 -4 -10z"/>
<path d="M4740 7264 c-14 -2 -99 -9 -190 -14 -160 -9 -287 -23 -296 -32 -2 -3
-1 -26 3 -53 6 -46 7 -47 22 -28 9 11 22 18 29 15 19 -6 14 -50 -8 -62 -28
-15 -27 -72 2 -111 19 -26 21 -33 10 -61 -6 -17 -9 -35 -6 -40 3 -4 7 -40 9
-79 1 -39 5 -72 6 -74 2 -1 93 -6 202 -10 l197 -7 -11 28 c-9 25 -7 31 15 50
31 28 88 40 246 53 162 14 666 31 909 31 105 0 191 3 191 7 0 4 9 77 21 161
30 217 49 200 -220 199 -119 0 -250 5 -291 12 -73 11 -789 24 -840 15z m-305
-444 c3 -5 1 -10 -4 -10 -6 0 -11 5 -11 10 0 6 2 10 4 10 3 0 8 -4 11 -10z"/>
<path d="M7211 7242 l-73 -3 7 -37 c9 -52 38 -108 53 -104 8 1 11 -2 7 -8 -6
-10 17 -40 30 -40 4 0 6 10 5 23 -7 81 0 110 34 142 19 17 29 31 22 31 -6 -1
-44 -2 -85 -4z"/>
<path d="M6884 7228 c-3 -5 -10 -6 -15 -2 -6 3 -13 -3 -16 -15 -3 -11 -9 -18
-14 -16 -4 3 -5 13 -2 23 7 18 5 17 -17 -11 -7 -10 -9 -17 -4 -15 5 2 10 -1
11 -7 0 -5 -3 -9 -9 -7 -11 3 -2 -14 19 -40 12 -13 27 -16 66 -12 50 4 107 31
91 43 -14 10 -15 31 -1 31 8 0 7 4 -3 10 -13 9 -13 10 0 10 13 0 13 1 0 10
-18 12 -99 10 -106 -2z m-27 -69 c-7 -11 -15 -15 -20 -10 -12 12 -2 28 17 28
11 0 12 -4 3 -18z"/>
<path d="M4130 7045 c0 -5 5 -17 10 -25 5 -8 10 -10 10 -5 0 6 -5 17 -10 25
-5 8 -10 11 -10 5z"/>
<path d="M5393 6813 c26 -2 67 -2 90 0 23 2 2 3 -48 3 -49 0 -68 -1 -42 -3z"/>
<path d="M4973 6803 c15 -2 39 -2 55 0 15 2 2 4 -28 4 -30 0 -43 -2 -27 -4z"/>
<path d="M6958 6793 c7 -3 16 -2 19 1 4 3 -2 6 -13 5 -11 0 -14 -3 -6 -6z"/>
<path d="M7000 6795 c0 -2 26 -12 58 -22 33 -10 49 -18 39 -21 -10 -2 -30 0
-45 5 -15 5 -49 6 -77 3 l-50 -6 75 -9 c41 -5 86 -10 100 -11 14 -1 28 -3 33
-3 4 -1 7 -8 7 -16 0 -9 -6 -12 -15 -9 -19 8 -19 -3 -2 -21 12 -11 17 -10 30
5 13 16 13 20 2 30 -8 6 -12 17 -9 25 7 16 -9 27 -66 42 -47 13 -80 16 -80 8z"/>
<path d="M4725 6759 c-4 -12 -2 -26 5 -33 10 -8 12 -6 7 12 -3 15 -1 22 9 22
8 0 14 5 14 10 0 19 -29 10 -35 -11z"/>
<path d="M4840 6771 c-19 -6 -12 -8 28 -8 29 0 55 3 58 8 6 11 -50 10 -86 0z"/>
<path d="M5395 6773 c-110 -2 -203 -7 -207 -11 -10 -10 813 -2 832 8 14 9
-143 10 -625 3z"/>
<path d="M5148 6753 c7 -3 16 -2 19 1 4 3 -2 6 -13 5 -11 0 -14 -3 -6 -6z"/>
<path d="M5813 6733 c9 -2 25 -2 35 0 9 3 1 5 -18 5 -19 0 -27 -2 -17 -5z"/>
<path d="M7046 6721 c-6 -9 35 -24 43 -15 6 5 -18 24 -31 24 -4 0 -9 -4 -12
-9z"/>
<path d="M5480 6701 l-55 -6 0 -175 c0 -144 -4 -182 -18 -214 l-17 -39 54 7
c35 4 57 2 61 -5 10 -16 -5 -120 -16 -113 -5 3 -7 9 -4 14 3 5 -5 7 -17 4 -13
-3 -29 -6 -35 -6 -9 -1 -10 -5 -2 -14 7 -8 7 -14 -1 -19 -7 -4 -14 2 -17 14
-3 12 -10 21 -15 21 -5 0 -7 -4 -4 -8 3 -5 -1 -9 -9 -9 -8 0 -12 4 -10 7 3 4
-8 7 -24 6 -16 0 -28 -3 -25 -5 2 -2 -4 -10 -14 -17 -13 -9 -20 -10 -31 -1
-12 10 -14 9 -8 -6 4 -10 3 -16 -2 -12 -5 3 -16 -2 -24 -10 -21 -20 -38 -19
-31 3 5 15 4 15 -6 -1 -9 -14 -9 -22 1 -33 10 -12 9 -13 -5 -8 -9 3 -16 11
-16 17 0 6 -3 7 -6 4 -4 -4 -1 -13 6 -22 7 -8 8 -15 2 -15 -15 0 -33 26 -24
35 4 5 2 5 -5 1 -7 -4 -9 -14 -6 -23 5 -12 2 -15 -9 -10 -21 8 -55 -28 -37
-39 8 -5 10 -3 4 6 -5 9 -4 11 4 6 6 -4 9 -12 5 -17 -3 -5 -10 -7 -15 -4 -5 4
-10 1 -10 -4 -3 -21 -4 -26 -12 -38 -4 -7 -3 -21 2 -31 6 -11 8 -22 5 -25 -8
-7 -37 4 -46 17 -4 6 -6 1 -6 -11 2 -14 8 -20 18 -18 9 2 22 0 29 -5 7 -4 -26
-9 -73 -12 -47 -2 -88 -7 -91 -10 -3 -3 2 -36 12 -74 17 -66 18 -67 23 -34 l6
35 7 -35 c5 -19 12 -82 17 -140 11 -133 36 -309 44 -317 7 -7 10 17 7 61 -1
17 1 28 4 25 4 -4 8 -25 19 -95 1 -6 20 -33 42 -60 22 -27 44 -57 47 -67 7
-17 -7 -56 -23 -67 -11 -7 1 -70 13 -70 23 0 87 -35 87 -47 0 -7 7 -13 15 -13
8 0 15 -9 15 -20 0 -12 7 -20 17 -20 14 0 14 -2 -2 -20 -15 -16 -16 -23 -6
-33 10 -9 11 -8 6 6 -6 13 -2 17 18 17 13 0 37 -6 52 -14 26 -13 26 -14 6 -21
-12 -3 -21 -11 -21 -16 0 -13 12 -11 35 5 25 17 59 14 82 -6 11 -10 28 -14 44
-11 15 3 37 -1 50 -8 13 -6 67 -22 121 -34 82 -18 123 -22 255 -20 87 2 169 5
183 8 14 3 63 12 109 21 46 9 94 22 107 31 28 18 48 19 66 3 16 -16 48 -22 48
-10 0 5 -10 12 -22 16 -19 5 -21 8 -8 16 8 5 28 10 43 10 15 0 40 8 54 17 14
10 39 16 55 14 28 -3 39 13 16 22 -7 3 0 6 16 6 24 1 26 3 16 16 -10 12 -7 16
16 26 16 6 37 15 47 21 13 6 23 5 33 -3 8 -6 17 -9 21 -5 3 3 1 6 -6 6 -10 0
-9 7 3 25 19 28 15 33 -9 9 -8 -9 -23 -13 -32 -10 -14 6 -12 12 14 39 25 26
30 38 26 63 -5 35 12 75 50 116 22 24 27 42 37 140 7 62 14 115 17 118 3 3 3
-42 0 -100 -5 -101 -5 -102 4 -30 6 41 13 91 16 110 l7 35 6 -35 c8 -36 9 -32
16 52 5 57 22 131 23 103 1 -18 2 -18 17 3 8 12 13 30 10 40 -3 9 1 29 9 44 7
16 17 49 20 75 6 47 6 47 -10 23 l-16 -25 6 25 c4 14 7 34 6 45 0 10 11 39 24
65 28 52 47 100 39 100 -2 0 -21 -36 -41 -81 l-37 -81 -35 8 c-34 6 -60 10
-106 14 -11 1 -15 4 -7 7 6 2 9 9 6 15 -4 5 4 5 16 -2 15 -8 20 -8 16 -1 -4 6
0 11 11 11 14 0 15 2 4 9 -9 6 -10 10 -2 16 9 5 9 10 0 21 -7 8 -7 14 -1 14 5
0 13 7 16 16 5 14 4 15 -9 4 -17 -14 -20 -3 -6 19 7 11 3 18 -12 26 -12 6 -21
19 -21 28 2 14 -1 15 -12 6 -12 -9 -13 -9 -9 4 4 8 2 18 -4 22 -6 3 -11 -1
-11 -10 0 -14 -4 -13 -27 5 -16 13 -29 17 -31 11 -2 -6 -8 -8 -13 -5 -6 3 -3
11 7 18 12 9 14 15 6 20 -7 4 -12 1 -12 -6 0 -9 -3 -9 -10 2 -8 12 -10 12 -10
1 0 -11 -3 -11 -16 0 -9 8 -27 12 -40 11 -15 -2 -24 3 -29 17 -5 17 -14 20
-60 18 -33 -1 -55 -7 -55 -13 0 -20 -24 -34 -40 -24 -13 9 -13 10 0 11 8 1 18
1 23 0 4 0 7 4 7 10 0 6 -7 9 -15 5 -8 -3 -15 0 -15 7 0 8 -3 7 -9 -2 -5 -8
-18 -16 -29 -18 -26 -4 -32 20 -32 140 l0 97 -274 0 -274 0 -4 45 c-2 25 0 45
3 45 3 0 6 16 7 35 2 41 9 58 23 50 5 -4 9 0 9 9 0 17 34 15 36 -2 1 -7 2 -18
3 -26 0 -8 8 -17 17 -20 8 -3 13 -2 9 3 -3 5 1 12 7 14 10 4 10 6 1 6 -7 1
-13 6 -13 12 0 5 5 7 11 3 7 -4 7 1 -1 16 -11 20 -10 22 4 17 10 -4 15 -3 11
3 -9 14 13 78 30 88 16 9 -393 11 -475 3z m507 -426 l20 -85 -24 0 c-13 0 -26
7 -29 15 -4 8 -15 15 -25 15 -11 0 -22 -7 -25 -15 -4 -8 -17 -15 -31 -15 -18
0 -23 4 -19 18 5 18 20 78 30 125 6 24 11 27 44 27 l38 0 21 -85z m-372 -1
c-4 -25 -2 -39 6 -44 24 -15 1 -40 -36 -40 -30 0 -35 3 -31 18 3 9 10 36 16
60 8 32 16 42 31 42 19 0 20 -4 14 -36z m125 -24 c0 -52 -2 -60 -19 -60 -11 0
-22 6 -25 13 -5 10 -7 10 -12 0 -3 -7 -15 -13 -26 -13 -16 0 -19 5 -15 23 3
12 9 39 12 60 7 35 9 37 46 37 l39 0 0 -60z m61 23 c1 -39 3 -38 13 10 4 18
13 27 26 27 17 0 19 -5 13 -32 -16 -80 -17 -83 -56 -86 l-37 -3 0 60 c0 54 2
61 20 61 16 0 20 -7 21 -37z m271 -8 c-4 -37 -2 -45 12 -45 9 0 16 -7 16 -15
0 -11 -11 -15 -41 -15 l-41 0 7 40 c6 33 4 40 -9 40 -9 0 -16 8 -16 20 0 17 7
20 39 20 l39 0 -6 -45z m97 3 c-2 -26 1 -43 9 -46 28 -9 11 -32 -23 -32 -34 0
-35 1 -35 39 0 25 -5 41 -15 45 -8 3 -15 12 -15 21 0 11 11 15 41 15 l41 0 -3
-42z m124 -18 c14 -56 14 -60 -2 -60 -9 0 -22 5 -28 11 -8 8 -13 8 -17 0 -4
-6 -16 -11 -27 -11 -17 0 -19 7 -19 60 l0 60 39 0 39 0 15 -60z m241 -101 c-3
-5 -10 -7 -15 -3 -5 3 -7 10 -3 15 3 5 10 7 15 3 5 -3 7 -10 3 -15z m253 -105
c-3 -3 -12 -4 -19 -1 -8 3 -5 6 6 6 11 1 17 -2 13 -5z m11 -42 c1 -14 7 -31
13 -38 9 -11 8 -14 -5 -14 -9 0 -15 3 -15 8 4 22 -2 52 -9 48 -5 -3 -9 1 -9 8
0 24 23 13 25 -12z m2 -72 c0 -5 -2 -10 -4 -10 -3 0 -8 5 -11 10 -3 6 -1 10 4
10 6 0 11 -4 11 -10z m50 -262 c0 -7 -5 -20 -10 -28 -8 -12 -10 -9 -10 13 0
15 5 27 10 27 6 0 10 -6 10 -12z m-808 -847 c-7 -4 -55 -7 -105 -5 -51 1 -114
2 -140 3 -27 1 -46 4 -44 9 3 4 72 6 153 4 82 -2 143 -7 136 -11z"/>
<path d="M5918 6285 c-4 -17 -1 -25 8 -25 8 0 14 9 14 19 0 30 -17 34 -22 6z"/>
<path d="M5691 6254 c0 -11 3 -14 6 -6 3 7 2 16 -1 19 -3 4 -6 -2 -5 -13z"/>
<path d="M6240 6255 c0 -8 4 -15 10 -15 5 0 7 7 4 15 -4 8 -8 15 -10 15 -2 0
-4 -7 -4 -15z"/>
<path d="M6801 6683 c-49 -107 -119 -371 -105 -394 3 -5 16 -9 30 -9 16 0 24
5 23 18 0 10 -3 12 -6 5 -2 -7 -12 -13 -20 -13 -13 0 -13 3 -3 15 7 8 9 15 4
15 -5 0 -2 4 6 10 9 6 17 5 22 -3 8 -13 7 -16 42 110 14 50 39 127 56 170 16
42 30 83 30 90 0 8 -13 13 -33 13 -27 0 -36 -6 -46 -27z"/>
<path d="M4741 6680 c-1 -29 72 -336 77 -322 2 8 -62 310 -73 337 -2 6 -4 -1
-4 -15z"/>
<path d="M6955 6643 c-17 -130 -16 -132 9 -62 13 36 29 76 35 87 11 20 9 22
-13 22 -22 0 -25 -5 -31 -47z"/>
<path d="M4920 6659 c0 -11 4 -18 9 -15 4 3 13 -6 20 -20 6 -14 15 -23 20 -20
9 6 21 -16 21 -37 -1 -7 -6 -6 -13 4 -7 8 -20 18 -30 22 -14 5 -17 3 -13 -11
2 -9 14 -62 26 -117 12 -55 25 -113 30 -130 4 -16 11 -42 14 -56 5 -24 9 -25
58 -24 29 1 51 6 49 11 -2 5 -12 27 -22 49 -10 22 -20 59 -23 82 -7 58 -57
255 -69 271 -5 6 -25 12 -43 12 -28 0 -34 -4 -34 -21z"/>
<path d="M7079 6622 c-3 -20 -2 -29 4 -23 5 5 7 19 5 32 -3 20 -5 19 -9 -9z"/>
<path d="M7121 6613 c0 -6 -4 -20 -7 -30 -5 -14 -4 -15 5 -7 7 7 11 20 8 30
-3 11 -5 14 -6 7z"/>
<path d="M7002 6571 c-14 -46 -15 -61 -3 -61 5 0 11 12 15 28 3 15 8 37 12 50
3 12 2 22 -3 22 -6 0 -15 -17 -21 -39z"/>
<path d="M7037 6516 c-6 -15 13 -76 24 -76 3 0 5 20 5 45 -1 44 -18 61 -29 31z"/>
<path d="M7091 6518 c-1 -10 -5 -18 -11 -18 -5 0 -10 -8 -10 -17 0 -14 3 -13
16 5 8 12 13 28 11 35 -3 7 -6 5 -6 -5z"/>
<path d="M7115 6429 c-9 -42 -12 -76 -7 -81 5 -5 13 24 20 69 6 43 9 79 7 81
-2 2 -10 -29 -20 -69z"/>
<path d="M7091 6454 c0 -11 3 -14 6 -6 3 7 2 16 -1 19 -3 4 -6 -2 -5 -13z"/>
<path d="M7876 6432 c-14 -22 -8 -181 8 -237 23 -75 23 -210 2 -285 -27 -93
-34 -157 -41 -366 -5 -140 -4 -204 4 -208 15 -10 223 -21 383 -21 99 0 141 4
150 13 9 9 14 49 15 125 2 62 10 302 19 534 9 232 14 428 11 437 -6 14 -39 16
-276 16 -148 0 -272 -4 -275 -8z m298 -28 c9 -3 16 -12 16 -20 0 -10 15 -14
60 -14 61 0 65 -2 60 -45 -2 -26 17 -8 22 20 2 12 13 21 25 23 17 3 24 -3 28
-25 4 -15 8 -33 10 -40 8 -24 10 -24 -287 -23 -106 0 -189 4 -193 10 -9 14 23
82 35 75 5 -3 10 -18 11 -33 1 -27 1 -27 15 6 14 32 15 32 70 27 50 -4 58 -2
77 20 24 27 27 28 51 19z"/>
<path d="M8255 6330 c-4 -6 -3 -16 3 -22 13 -13 23 4 13 21 -7 10 -10 10 -16
1z"/>
<path d="M7071 6414 c0 -11 3 -14 6 -6 3 7 2 16 -1 19 -3 4 -6 -2 -5 -13z"/>
<path d="M7556 6301 c22 -21 51 -44 65 -51 13 -8 19 -15 12 -17 -6 -2 -24 4
-40 14 l-28 18 32 -40 c38 -47 63 -113 63 -165 0 -34 2 -37 21 -33 13 4 19 13
18 27 -1 11 1 40 5 63 6 32 3 50 -13 80 -21 43 -93 113 -115 113 -7 0 -19 7
-26 15 -7 8 -17 15 -23 15 -6 0 7 -17 29 -39z m114 -141 c0 -5 -2 -10 -4 -10
-3 0 -8 5 -11 10 -3 6 -1 10 4 10 6 0 11 -4 11 -10z"/>
<path d="M7107 6310 c-3 -11 -1 -20 4 -20 5 0 9 9 9 20 0 11 -2 20 -4 20 -2 0
-6 -9 -9 -20z"/>
<path d="M10670 6312 c0 -5 16 -16 35 -25 47 -23 122 -93 145 -136 21 -39 25
-26 10 29 -12 42 -72 108 -117 126 -36 16 -73 18 -73 6z"/>
<path d="M2920 6183 c0 -65 3 -148 7 -185 6 -67 6 -68 36 -68 69 0 144 72 154
149 7 52 -13 124 -44 157 -18 20 -32 25 -61 23 -56 -3 -62 -1 -62 21 0 11 -7
20 -15 20 -12 0 -15 -20 -15 -117z"/>
<path d="M7075 6250 c-4 -17 -5 -34 -2 -36 2 -3 7 10 11 27 3 18 4 34 2 36 -2
3 -7 -10 -11 -27z"/>
<path d="M7145 6250 c-3 -5 -1 -10 4 -10 6 0 11 5 11 10 0 6 -2 10 -4 10 -3 0
-8 -4 -11 -10z"/>
<path d="M7806 6210 c38 -126 29 -284 -23 -383 -22 -43 -10 -42 26 3 26 33 33
52 37 98 2 31 6 69 10 85 11 52 -7 154 -33 189 -22 29 -24 30 -17 8z"/>
<path d="M7830 6225 c0 -2 10 -10 23 -16 20 -11 21 -11 8 4 -13 16 -31 23 -31
12z"/>
<path d="M9400 6221 l-55 -6 -3 -67 -3 -68 -67 -1 c-37 0 -115 -1 -174 -1 -78
1 -110 -3 -118 -13 -6 -7 -20 -12 -30 -10 -19 4 -19 2 -4 -21 14 -20 19 -22
33 -12 9 7 13 9 10 5 -4 -5 4 -20 17 -34 13 -14 21 -30 18 -35 -3 -5 2 -19 13
-30 10 -12 12 -18 4 -13 -11 6 -13 3 -9 -13 4 -12 2 -20 -2 -17 -5 3 -12 1
-15 -5 -4 -6 -1 -9 7 -8 8 2 13 -7 14 -24 1 -16 -3 -28 -7 -28 -5 0 -9 -5 -9
-11 0 -5 5 -7 12 -3 6 4 8 3 4 -4 -3 -5 0 -13 6 -15 10 -4 10 -6 1 -6 -7 -1
-13 -8 -13 -16 0 -8 -6 -12 -14 -9 -8 3 -17 1 -21 -5 -3 -7 0 -8 9 -5 11 4 16
0 16 -11 0 -9 -4 -13 -10 -10 -5 3 -10 2 -10 -3 0 -6 6 -12 14 -15 15 -6 16
-31 1 -44 -4 -4 -5 -3 -2 3 3 6 0 11 -8 11 -10 0 -12 -4 -5 -12 5 -6 7 -20 6
-30 -2 -11 0 -24 4 -30 10 -14 9 -45 -2 -39 -4 3 -8 0 -8 -6 0 -6 -5 -8 -11
-4 -8 5 -8 1 0 -13 7 -14 7 -24 -2 -33 -9 -10 -9 -11 1 -6 6 4 12 2 12 -4 0
-6 4 -9 9 -5 5 3 13 0 17 -6 4 -7 3 -9 -4 -5 -6 3 -13 2 -17 -4 -3 -5 2 -10
12 -10 13 0 10 -5 -12 -20 -16 -11 -25 -20 -20 -20 6 0 11 -9 11 -20 0 -18 -1
-18 -20 -2 -20 16 -20 16 -6 -2 12 -15 12 -20 2 -23 -6 -3 -10 -8 -7 -13 3 -5
-2 -16 -11 -25 -10 -9 -13 -20 -8 -24 17 -16 77 -31 121 -31 37 0 45 -4 53
-24 5 -13 17 -27 27 -30 28 -9 471 -10 638 -1 83 4 164 13 180 20 17 7 46 20
65 28 20 9 55 17 78 18 42 3 80 28 69 47 -3 4 -7 30 -8 58 -1 27 -7 55 -12 62
-7 9 -7 12 0 10 6 -2 11 2 11 7 0 6 -3 9 -7 8 -4 -1 -8 5 -8 13 0 8 3 12 5 9
7 -7 33 46 27 55 -3 5 1 11 7 13 7 3 4 6 -7 6 -17 1 -17 3 -5 11 8 5 10 10 4
10 -6 0 -11 7 -11 15 0 9 4 11 11 6 8 -7 12 9 13 52 1 34 4 73 6 87 3 14 6 35
6 48 1 12 5 22 11 22 5 0 7 -6 4 -14 -3 -8 0 -17 7 -22 8 -4 10 -3 5 5 -4 6
-3 18 3 25 8 10 7 17 -4 26 -12 10 -13 15 -4 21 10 6 10 11 0 23 -11 14 -11
16 3 16 10 0 15 -4 12 -8 -3 -5 0 -9 7 -9 7 0 12 15 13 33 0 18 -3 31 -8 28
-4 -3 -8 -12 -8 -20 0 -8 -4 -14 -8 -14 -4 0 -8 9 -8 19 0 11 4 18 7 15 4 -2
10 0 14 5 3 6 12 8 20 5 11 -5 12 -10 2 -25 -9 -15 -9 -22 4 -34 13 -13 15
-12 17 12 1 15 -5 42 -13 60 -9 18 -13 37 -10 42 4 8 -17 20 -45 26 -3 1 -18
4 -35 8 -52 12 -106 17 -229 22 -68 2 -124 9 -132 16 -9 7 -14 31 -14 64 0 45
-3 53 -21 58 -27 7 -324 5 -399 -2z m206 -46 c4 -11 21 -15 55 -15 46 0 49 -2
49 -25 0 -14 5 -25 10 -25 6 0 10 11 10 25 0 18 5 25 20 25 22 0 28 -10 32
-49 3 -24 2 -24 -87 -26 -49 -1 -96 3 -102 8 -8 6 -18 6 -25 0 -7 -5 -53 -9
-103 -8 -96 1 -91 -2 -87 55 1 11 9 20 18 20 12 0 15 -6 10 -25 -4 -14 -2 -25
4 -25 5 0 12 11 16 25 6 24 10 25 61 24 43 -2 58 2 65 14 11 21 47 22 54 2z
m-638 -150 c-3 -3 -9 2 -12 12 -6 14 -5 15 5 6 7 -7 10 -15 7 -18z m1212 -466
c0 -5 -4 -9 -8 -9 -5 0 -9 7 -9 15 0 8 4 12 9 9 4 -3 8 -9 8 -15z m-1165 -19
c3 -5 1 -10 -4 -10 -6 0 -11 5 -11 10 0 6 2 10 4 10 3 0 8 -4 11 -10z"/>
<path d="M9616 6132 c-2 -4 -1 -14 5 -22 7 -12 9 -10 9 8 0 23 -5 28 -14 14z"/>
<path d="M9660 6126 c0 -8 5 -18 10 -21 6 -3 10 3 10 14 0 12 -4 21 -10 21 -5
0 -10 -6 -10 -14z"/>
<path d="M3887 6203 c-4 -3 -7 -246 -7 -540 0 -499 1 -534 18 -541 23 -9 492
-9 515 0 18 8 18 32 11 540 -5 372 -10 535 -18 540 -14 10 -510 10 -519 1z
m292 -45 c7 -18 16 -22 67 -22 57 -1 59 -2 62 -28 4 -38 22 -36 22 2 0 39 36
42 50 4 23 -60 20 -62 -97 -62 -62 0 -114 5 -121 11 -9 7 -16 7 -20 0 -8 -11
-232 -16 -232 -5 0 4 5 24 11 45 12 43 36 45 31 3 -4 -35 14 -33 26 4 11 29
11 30 76 26 48 -3 66 -1 66 8 0 16 21 36 37 36 8 0 17 -10 22 -22z"/>
<path d="M4190 6103 c0 -5 5 -15 10 -23 8 -12 10 -11 10 8 0 12 -4 22 -10 22
-5 0 -10 -3 -10 -7z"/>
<path d="M4250 6090 c0 -11 5 -20 10 -20 6 0 10 9 10 20 0 11 -4 20 -10 20 -5
0 -10 -9 -10 -20z"/>
<path d="M7038 6099 c-76 -299 -127 -507 -131 -529 -3 -14 -10 -45 -17 -70
-11 -39 -15 -59 -19 -92 -1 -4 -8 -5 -16 -2 -11 5 -15 -1 -15 -22 0 -27 1 -27
15 -8 19 25 19 7 0 -46 -17 -48 -21 -115 -5 -90 5 8 12 11 16 8 7 -8 50 42 47
54 -2 5 1 7 6 5 9 -2 134 123 128 129 -8 8 -102 -69 -99 -81 2 -9 -3 -13 -11
-9 -16 6 -51 -31 -42 -45 3 -7 0 -8 -9 -5 -23 9 -21 25 35 241 28 109 57 234
65 278 8 44 31 144 50 223 20 78 34 148 32 154 -2 6 -16 -36 -30 -93z"/>
<path d="M6385 6180 c3 -5 8 -10 11 -10 2 0 4 5 4 10 0 6 -5 10 -11 10 -5 0
-7 -4 -4 -10z"/>
<path d="M6580 6181 c0 -6 4 -13 10 -16 6 -3 7 1 4 9 -7 18 -14 21 -14 7z"/>
<path d="M6631 6168 c5 -10 12 -18 14 -18 3 0 5 8 5 18 0 10 -7 19 -14 19 -11
0 -13 -5 -5 -19z"/>
<path d="M7746 6170 c3 -14 8 -59 11 -101 8 -112 -9 -160 -104 -299 -15 -22
-13 -22 16 5 17 16 46 59 64 94 27 56 32 77 35 160 3 74 0 104 -12 131 -11 23
-14 26 -10 10z"/>
<path d="M10455 6179 c-4 -6 -5 -12 -2 -15 2 -3 7 2 10 11 7 17 1 20 -8 4z"/>
<path d="M6881 6156 c-7 -17 -10 -44 -9 -60 4 -30 4 -30 16 12 16 54 11 91 -7
48z"/>
<path d="M5233 6152 c1 -12 6 -18 15 -15 7 3 10 9 5 12 -4 3 -11 10 -15 15 -4
4 -6 -1 -5 -12z"/>
<path d="M631 6122 c-58 -39 -93 -95 -99 -156 -6 -67 9 -51 25 26 17 81 53
117 153 151 8 3 3 6 -11 6 -14 1 -45 -12 -68 -27z"/>
<path d="M6742 6128 c-7 -7 -12 -16 -12 -21 0 -5 7 -1 16 8 9 9 14 18 12 20
-2 3 -10 -1 -16 -7z"/>
<path d="M4881 6074 c0 -11 3 -14 6 -6 3 7 2 16 -1 19 -3 4 -6 -2 -5 -13z"/>
<path d="M7091 6058 c0 -18 9 -51 20 -73 11 -22 17 -31 13 -20 -4 11 -9 44
-12 73 -5 56 -22 73 -21 20z"/>
<path d="M1365 6070 c6 -10 3 -12 -13 -8 -12 4 -22 3 -22 -1 0 -4 -17 -7 -37
-8 -21 0 -49 -3 -63 -6 -14 -3 -63 -9 -110 -12 -133 -9 -134 -10 -147 -18 -17
-11 -16 -47 1 -66 8 -9 17 -33 20 -55 4 -21 9 -43 12 -48 3 -5 6 -40 6 -76 0
-44 2 -60 8 -47 7 18 8 17 14 -10 14 -60 14 -65 3 -58 -6 4 -8 -2 -4 -18 4
-13 7 -28 7 -32 0 -5 5 -5 10 -2 6 3 10 1 10 -5 0 -6 4 -9 8 -6 5 3 9 0 9 -7
1 -35 65 -262 75 -269 7 -4 20 -8 29 -8 9 0 22 -7 29 -15 7 -8 21 -15 32 -15
10 0 31 -6 46 -14 44 -22 177 -55 252 -62 50 -5 70 -11 70 -21 0 -20 29 -12
56 15 18 17 34 22 79 22 61 0 95 13 95 35 0 21 69 20 76 0 7 -18 31 -20 37 -2
2 6 -1 23 -7 36 -9 20 -6 27 17 47 16 13 25 24 21 24 -4 0 2 10 13 23 16 17
58 119 68 167 1 3 7 25 14 50 15 51 19 69 20 88 1 7 4 11 9 9 6 -5 9 6 15 73
1 14 5 28 9 31 5 3 8 16 8 30 -1 77 1 97 11 122 6 15 15 27 20 27 24 0 -1 27
-41 46 -43 20 -60 21 -317 18 -150 -1 -273 1 -273 5 0 4 -10 7 -22 6 -32 -3
-49 5 -41 19 5 8 3 8 -8 0 -27 -21 -64 -24 -89 -7 -15 11 -20 12 -15 3z m293
-86 c5 -10 23 -15 51 -16 34 0 44 -5 51 -22 7 -17 9 -18 9 -3 1 23 30 34 42
16 5 -8 9 -24 9 -36 0 -22 0 -22 -177 -22 -98 1 -181 3 -184 5 -9 5 2 54 12
54 5 0 9 -9 9 -20 0 -27 13 -25 25 2 9 19 16 22 53 20 35 -3 47 0 59 17 17 25
29 27 41 5z"/>
<path d="M1710 5930 c0 -5 5 -10 10 -10 6 0 10 5 10 10 0 6 -4 10 -10 10 -5 0
-10 -4 -10 -10z"/>
<path d="M7716 6054 c-3 -9 -6 -40 -6 -69 0 -30 -4 -57 -10 -60 -12 -7 -13
-35 -2 -35 22 0 54 162 34 174 -5 3 -13 -1 -16 -10z"/>
<path d="M6882 6048 c-18 -23 -42 -90 -42 -118 0 -16 7 -30 15 -34 12 -4 15 3
15 34 0 25 5 40 13 40 9 0 9 2 0 8 -12 8 -10 49 3 61 4 3 4 -2 1 -11 -3 -10
-2 -20 3 -23 6 -4 10 7 10 24 0 34 -3 37 -18 19z"/>
<path d="M7065 5994 c4 -38 9 -71 12 -74 9 -10 23 26 17 45 -3 11 -8 35 -11
53 -3 18 -10 35 -15 38 -7 5 -8 -16 -3 -62z"/>
<path d="M4892 6030 c0 -14 2 -19 5 -12 2 6 2 18 0 25 -3 6 -5 1 -5 -13z"/>
<path d="M5074 6015 c-3 -8 -3 -19 1 -25 3 -5 0 -10 -8 -10 -20 0 -17 -27 5
-47 18 -16 18 -16 12 0 -3 9 -11 17 -16 17 -6 0 -5 7 3 16 7 8 13 26 14 40 1
27 -3 31 -11 9z"/>
<path d="M4901 5984 c0 -11 3 -14 6 -6 3 7 2 16 -1 19 -3 4 -6 -2 -5 -13z"/>
<path d="M8980 5989 c0 -5 5 -7 10 -4 6 3 10 8 10 11 0 2 -4 4 -10 4 -5 0 -10
-5 -10 -11z"/>
<path d="M10984 5992 c-11 -7 -34 -46 -34 -57 0 -3 9 -1 19 5 11 5 33 10 48
10 16 0 34 5 41 12 9 9 17 9 34 -1 13 -6 42 -13 65 -14 38 -1 64 -20 48 -35
-2 -3 -64 -6 -136 -7 -110 -2 -135 -5 -144 -19 -7 -9 -15 -56 -19 -104 -3 -48
-11 -161 -17 -252 -7 -91 -16 -170 -21 -176 -6 -8 -1 -13 14 -17 38 -9 305
-20 330 -14 16 4 30 21 42 48 18 41 18 42 -2 58 -31 25 -34 65 -21 293 15 254
15 258 -3 269 -16 11 -229 12 -244 1z"/>
<path d="M7026 5965 c-5 -18 -1 -32 12 -46 19 -20 19 -19 17 18 -3 51 -4 53
-14 53 -5 0 -12 -11 -15 -25z"/>
<path d="M8997 5973 c-4 -3 -1 -15 5 -27 7 -11 11 -25 10 -29 -1 -5 2 -6 8 -2
8 5 8 11 0 20 -7 8 -9 19 -6 24 7 11 -8 24 -17 14z"/>
<path d="M7136 5927 c3 -10 9 -15 12 -12 3 3 0 11 -7 18 -10 9 -11 8 -5 -6z"/>
<path d="M7185 5860 c21 -22 41 -40 44 -40 3 0 -13 18 -34 40 -21 22 -41 40
-44 40 -3 0 13 -18 34 -40z"/>
<path d="M9011 5837 c-13 -21 -12 -21 5 -5 10 10 16 20 13 22 -3 3 -11 -5 -18
-17z"/>
<path d="M10281 5835 c-8 -33 -7 -55 1 -47 6 6 8 20 5 33 -2 13 -5 20 -6 14z"/>
<path d="M2930 5536 c0 -104 4 -167 10 -171 12 -7 341 -7 349 0 17 18 -93 160
-176 227 -71 57 -151 108 -171 108 -9 0 -12 -46 -12 -164z"/>
<path d="M11383 5593 c4 -6 0 -16 -8 -23 -8 -7 -15 -17 -15 -23 0 -5 -10 -29
-22 -53 -23 -46 -21 -58 5 -48 14 5 33 47 42 92 2 9 4 17 5 17 8 0 6 36 -2 42
-6 3 -8 1 -5 -4z"/>
<path d="M7069 5453 c-13 -17 -13 -17 6 -3 11 8 22 16 24 17 2 2 0 3 -6 3 -6
0 -17 -8 -24 -17z"/>
<path d="M10257 5463 c-4 -3 -7 -18 -7 -32 l1 -26 14 25 c8 14 14 28 15 33 0
9 -14 9 -23 0z"/>
<path d="M6954 5308 l-29 -33 33 29 c30 28 37 36 29 36 -2 0 -16 -15 -33 -32z"/>
<path d="M2735 5284 c12 -33 12 -41 -1 -50 -8 -6 -14 -17 -14 -24 0 -10 65
-12 310 -8 170 2 312 6 315 9 8 9 -24 79 -38 84 -26 8 -134 15 -355 21 l-231
7 14 -39z"/>
<path d="M6894 5241 c-17 -16 -38 -31 -45 -33 -8 -3 -11 -8 -8 -12 3 -3 26 12
50 33 24 22 42 40 39 40 -3 0 -19 -12 -36 -28z"/>
<path d="M7770 5259 c-74 -3 -95 -6 -60 -8 30 -2 60 -4 65 -6 6 -1 83 -3 173
-3 90 -1 161 -6 158 -11 -3 -4 -36 -9 -73 -9 -182 -4 -393 -15 -393 -22 0 -4
35 -11 77 -15 42 -4 97 -12 123 -19 60 -16 118 -19 340 -18 190 1 353 11 366
24 8 9 -14 67 -33 86 -10 10 -77 13 -320 10 -170 -2 -360 -5 -423 -9z m543
-26 c-7 -2 -19 -2 -25 0 -7 3 -2 5 12 5 14 0 19 -2 13 -5z"/>
<path d="M9151 5135 c8 -7 119 -9 126 -2 3 4 -24 7 -62 7 -38 0 -66 -2 -64 -5z"/>
<path d="M6796 5089 c-22 -54 -15 -61 9 -9 10 22 16 43 13 46 -3 2 -13 -14
-22 -37z"/>
<path d="M9043 5118 c21 -7 32 -7 40 1 8 8 0 11 -28 10 -40 -1 -40 -1 -12 -11z"/>
<path d="M4868 5074 c-12 -25 -13 -25 -87 -18 -123 11 -194 10 -486 -12 -238
-18 -322 -21 -513 -19 -167 2 -220 0 -240 -11 -20 -10 -70 -14 -182 -14 -85 0
-211 -5 -280 -10 -69 -5 -161 -10 -205 -11 -111 -3 -132 -13 -77 -39 31 -15
39 -17 106 -24 27 -3 67 -8 90 -12 73 -11 108 -13 291 -19 99 -3 187 -8 195
-11 8 -3 90 -7 183 -11 93 -3 177 -7 186 -8 9 -2 26 -4 39 -4 13 -1 21 -5 18
-9 -3 -4 10 -6 27 -4 18 2 43 2 57 1 29 -2 133 0 270 5 98 3 162 9 290 26 41
6 93 12 115 14 22 2 72 7 110 11 74 7 125 22 137 39 14 20 8 87 -8 103 -9 9
-14 26 -11 40 6 31 -11 29 -25 -3z m22 -64 c0 -11 -4 -20 -10 -20 -5 0 -10 9
-10 20 0 11 5 20 10 20 6 0 10 -9 10 -20z"/>
<path d="M8940 5070 c0 -32 11 -38 83 -46 29 -3 72 -10 97 -16 25 -5 154 -12
288 -14 l243 -4 -3 32 c-3 31 -6 33 -53 41 -44 7 -220 17 -557 30 l-98 4 0
-27z"/>
<path d="M9957 5068 c-14 -11 -14 -16 -2 -32 7 -10 19 -15 25 -11 6 4 20 -1
30 -10 15 -14 24 -15 59 -5 46 12 49 18 22 48 -14 17 -30 22 -68 22 -27 0 -57
-6 -66 -12z"/>
<path d="M6740 5060 c0 -5 5 -10 11 -10 5 0 7 5 4 10 -3 6 -8 10 -11 10 -2 0
-4 -4 -4 -10z"/>
<path d="M6665 4991 c-3 -5 -1 -12 4 -15 5 -3 11 1 15 9 6 16 -9 21 -19 6z"/>
<path d="M5246 4859 c21 -24 38 -25 26 -2 -6 9 -17 18 -27 19 -16 2 -15 1 1
-17z"/>
<path d="M6483 4865 c6 -13 -19 -39 -69 -73 -11 -7 -5 -6 11 2 47 23 89 61 81
74 -10 17 -29 15 -23 -3z"/>
<path d="M5194 4826 c3 -13 9 -31 12 -40 3 -9 2 -16 -4 -16 -5 0 -13 7 -16 16
-3 8 -10 13 -15 9 -6 -3 -8 -12 -4 -20 4 -11 22 -15 68 -15 35 0 70 3 79 6 19
7 21 44 3 44 -8 0 -27 6 -43 14 -16 7 -42 17 -58 20 -26 7 -28 5 -22 -18z"/>
<path d="M5340 4841 c-24 -7 -22 -9 25 -30 28 -13 53 -25 58 -28 4 -2 7 -1 7
4 0 4 -15 15 -33 24 -17 9 -31 22 -29 28 1 6 1 11 0 10 -2 -1 -14 -4 -28 -8z"/>
<path d="M5435 4840 c-3 -5 -1 -10 4 -10 6 0 11 5 11 10 0 6 -2 10 -4 10 -3 0
-8 -4 -11 -10z"/>
<path d="M5457 4824 c-4 -4 -7 -10 -7 -14 0 -11 49 -30 73 -29 21 0 21 1 -3
10 -14 6 -29 11 -35 12 -5 1 -12 8 -15 15 -3 7 -9 10 -13 6z"/>
<path d="M6538 4823 c-10 -2 -18 -9 -18 -14 0 -14 16 -11 30 6 7 8 11 14 9 14
-2 -1 -12 -3 -21 -6z"/>
<path d="M6641 4789 c-10 -29 -9 -30 17 -27 15 2 25 8 22 13 -2 6 -10 9 -16 7
-8 -1 -10 5 -7 18 8 31 -4 23 -16 -11z"/>
<path d="M6487 4799 c-25 -14 -21 -39 6 -39 18 0 19 2 7 10 -13 9 -13 11 0 19
20 13 9 22 -13 10z"/>
<path d="M5557 4776 c-3 -6 8 -12 25 -13 31 -2 31 11 -1 20 -11 2 -22 0 -24
-7z"/>
<path d="M5435 4770 c-3 -6 1 -7 9 -4 18 7 21 14 7 14 -6 0 -13 -4 -16 -10z"/>
<path d="M6370 4776 c0 -2 7 -7 16 -10 8 -3 12 -2 9 4 -6 10 -25 14 -25 6z"/>
<path d="M5164 4733 c9 -19 27 -35 42 -39 22 -6 44 -37 44 -64 0 -5 -17 -12
-37 -15 -54 -9 -95 -30 -121 -60 -16 -18 -29 -24 -42 -20 -10 3 -27 2 -37 -4
-40 -22 -81 -29 -93 -18 -9 9 -11 9 -7 1 4 -7 -4 -15 -19 -18 -15 -4 -33 -14
-42 -22 -10 -11 -18 -12 -25 -5 -13 13 -30 15 -23 2 8 -12 -39 -42 -50 -31
-16 14 -54 -7 -48 -27 5 -14 4 -15 -4 -4 -5 7 -14 11 -20 7 -6 -3 -13 0 -15 6
-3 7 -6 -2 -6 -19 -1 -37 -21 -46 -21 -10 -1 21 -1 21 -12 2 -18 -31 -57 -65
-76 -65 -14 0 -15 -2 -2 -9 8 -6 18 -7 22 -5 4 3 8 -2 8 -10 0 -9 -4 -16 -10
-16 -5 0 -10 -5 -10 -10 0 -6 3 -9 8 -8 13 5 52 -29 44 -38 -4 -4 0 -3 10 4
13 10 17 10 20 0 4 -11 8 -10 21 0 14 12 19 12 32 -2 15 -15 37 -21 60 -16 6
1 47 3 93 6 46 2 88 7 94 10 7 4 8 3 4 -4 -4 -7 -2 -12 3 -12 6 0 11 4 11 8 0
5 7 9 15 9 8 0 15 -4 15 -8 0 -13 28 -4 51 17 12 10 19 13 15 7 -5 -9 -2 -11
8 -7 9 3 16 10 16 15 0 5 11 4 25 -3 13 -6 22 -15 19 -19 -3 -5 1 -9 8 -10 7
0 22 -3 33 -5 11 -2 28 -5 38 -6 9 -1 20 -10 23 -20 3 -10 10 -18 15 -18 5 0
9 -5 9 -11 0 -6 7 -17 15 -26 8 -8 12 -19 9 -25 -4 -7 -2 -8 5 -4 13 9 53 -2
47 -13 -3 -4 7 -8 22 -8 15 -1 62 -3 105 -6 50 -2 77 0 78 7 0 6 4 2 9 -9 5
-11 9 -15 9 -8 1 8 10 9 31 3 23 -7 32 -5 40 8 5 9 10 13 10 9 0 -5 20 6 44
24 27 19 51 29 61 25 9 -3 13 -2 10 4 -3 5 7 7 25 5 16 -2 30 0 30 4 0 4 6 8
13 9 22 2 41 7 74 21 28 11 34 11 48 -3 9 -9 23 -17 31 -17 8 -1 17 -2 22 -3
4 -1 24 -5 45 -9 20 -5 37 -12 37 -18 0 -6 5 -7 10 -4 6 3 13 0 16 -8 3 -8 15
-18 27 -22 54 -16 147 -20 147 -6 0 3 25 6 55 7 30 0 52 -3 49 -7 -2 -5 9 -3
26 2 17 6 39 9 50 6 11 -3 26 3 36 14 14 16 20 17 32 6 13 -9 14 -9 8 1 -4 7
-1 12 8 12 9 0 16 6 16 14 0 17 8 23 41 30 13 3 39 9 57 15 17 5 32 7 32 4 0
-3 6 -1 13 4 6 6 33 9 59 7 27 -1 50 2 54 7 3 5 10 7 15 4 5 -4 9 1 9 10 0 15
7 25 38 61 8 8 11 21 8 29 -7 19 33 42 44 25 5 -8 9 -7 14 5 4 11 12 14 26 10
13 -4 20 -2 20 7 0 20 -17 42 -24 30 -3 -5 -17 -9 -30 -9 -22 0 -23 1 -11 14
8 8 19 12 25 8 6 -3 7 1 4 9 -7 19 -16 20 -31 5 -7 -7 -12 -4 -16 10 -3 12 -1
19 3 16 5 -3 15 -2 24 1 12 5 13 9 3 19 -8 8 -14 9 -18 3 -4 -6 -12 -7 -18 -3
-9 5 -9 10 -1 20 8 9 6 14 -7 19 -10 4 -19 7 -20 7 -2 0 -16 4 -33 9 -21 6
-30 5 -30 -3 0 -8 -3 -8 -8 -2 -4 6 -17 11 -30 13 -21 2 -22 1 -8 -14 14 -14
14 -34 0 -34 -3 0 -2 5 1 10 3 6 -2 13 -12 17 -10 4 -24 13 -32 21 -8 8 -24
11 -37 8 -19 -5 -22 -3 -17 11 5 15 3 16 -8 6 -7 -7 -21 -13 -30 -13 -22 0
-69 59 -62 77 6 16 5 16 -45 -1 -23 -8 -92 -17 -154 -20 l-113 -5 90 14 90 13
-93 -5 c-133 -7 -689 -6 -807 2 -67 4 -97 3 -90 -4 6 -5 33 -12 60 -14 28 -2
8 -4 -47 -5 -59 -1 -98 2 -98 8 0 5 -16 16 -35 24 -23 10 -40 27 -52 52 -14
29 -26 40 -53 47 -19 5 -41 14 -49 20 -10 9 -10 3 3 -20z m484 -140 c-10 -2
-26 -2 -35 0 -10 3 -2 5 17 5 19 0 27 -2 18 -5z m559 1 c-8 -8 -526 -8 -534 0
-3 3 117 6 267 6 150 0 270 -3 267 -6z m493 -133 c0 -3 -4 -12 -9 -20 -7 -11
-11 -10 -20 6 -5 11 -8 23 -5 26 7 7 34 -3 34 -12z m171 -44 c-10 -9 -11 -8
-5 6 3 10 9 15 12 12 3 -3 0 -11 -7 -18z m-6 -86 c3 -5 1 -12 -5 -16 -5 -3
-10 1 -10 9 0 18 6 21 15 7z m-2260 -30 c3 -5 2 -12 -3 -15 -5 -3 -9 1 -9 9 0
17 3 19 12 6z"/>
<path d="M5485 4750 c-3 -6 -53 -10 -113 -11 -124 0 -112 -13 23 -23 103 -9
110 -9 148 -2 15 2 27 0 27 -4 0 -5 22 -8 50 -8 27 1 47 4 45 8 -2 4 96 5 218
2 282 -6 250 -6 472 1 105 3 198 9 208 13 25 9 21 34 -5 33 -22 0 -22 -1 -3
-9 14 -7 2 -10 -45 -10 -154 -3 -350 -3 -560 0 -124 2 -274 0 -333 -3 -107 -7
-143 -3 -116 14 10 6 10 9 2 9 -6 0 -15 -4 -18 -10z"/>
<path d="M5296 4701 c-3 -5 2 -18 12 -29 13 -16 34 -21 99 -26 59 -4 83 -2 86
7 4 9 7 9 18 0 7 -7 38 -13 70 -13 l57 0 -11 25 c-10 21 -19 25 -54 25 -36 0
-41 -2 -36 -20 7 -26 -14 -26 -22 0 -3 11 -9 19 -13 18 -10 -3 -164 13 -184
18 -9 3 -19 1 -22 -5z"/>
<path d="M6417 4678 c-9 -31 -2 -33 17 -3 13 20 14 25 2 25 -7 0 -16 -10 -19
-22z"/>
<path d="M5970 4670 c-11 -7 -3 -10 28 -10 24 0 41 -4 38 -8 -3 -5 8 -9 24 -9
17 0 30 4 30 9 0 4 -5 8 -11 8 -5 0 -7 5 -4 10 8 13 -85 13 -105 0z"/>
<path d="M6098 4673 c6 -2 18 -2 25 0 6 3 1 5 -13 5 -14 0 -19 -2 -12 -5z"/>
<path d="M6540 4660 c-13 -8 -13 -10 2 -10 9 0 20 5 23 10 8 13 -5 13 -25 0z"/>
<path d="M6309 4649 c-10 -6 -7 -9 14 -9 29 0 35 5 14 13 -8 3 -20 1 -28 -4z"/>
<path d="M6108 4643 c6 -2 18 -2 25 0 6 3 1 5 -13 5 -14 0 -19 -2 -12 -5z"/>
</g>
</svg>
